<svg xmlns="http://www.w3.org/2000/svg" width="384" height="512" viewBox="0 0 384 512"><path d="M256,80H224V32H160V80H128V0H256Zm0,0" fill="#62808c"/><path d="M304,512H80a48,48,0,0,1-48-48V128H352V464A48,48,0,0,1,304,512Zm0,0" fill="#e76e54"/><path d="M384,160H0V96A32,32,0,0,1,32,64H352a32,32,0,0,1,32,32Zm0,0" fill="#77959e"/><path d="M260,260a16,16,0,0,0-22.625,0L196,301.375,154.625,260A16,16,0,0,0,132,282.625L173.375,324,132,365.375A16,16,0,0,0,154.625,388L196,346.625,237.375,388A16,16,0,0,0,260,365.375L218.625,324,260,282.625A16,16,0,0,0,260,260Zm0,0" fill="#fff"/></svg>