<svg xmlns="http://www.w3.org/2000/svg" width="511.996" height="512" viewBox="0 0 511.996 512"><path d="M256,512C114.516,512,0,397.34,0,256,0,114.512,114.5,0,256,0,397.488,0,512,114.5,512,256,512,397.477,397.328,512,256,512Zm0,0" fill="#66a9df"/><path d="M256,0V512c141.328,0,256-114.52,256-256C512,114.5,397.488,0,256,0Zm0,0" fill="#4f84cf"/><path d="M256,316c-74.488,0-145.512,32.563-197.418,102.969,103.363,124.941,294.688,123.875,396.656-2.23C430.058,391.692,373.344,316,256,316Zm0,0" fill="#d6f3fe"/><path d="M455.238,416.738A255.331,255.331,0,0,1,256,512V316c117.348,0,174.059,75.7,199.238,100.738Zm0,0" fill="#bdecfc"/><path d="M256,271a90.1,90.1,0,0,1-90-90V151a90,90,0,0,1,180,0v30A90.1,90.1,0,0,1,256,271Zm0,0" fill="#d6f3fe"/><path d="M256,61V271a90.1,90.1,0,0,0,90-90V151A90.1,90.1,0,0,0,256,61Zm0,0" fill="#bdecfc"/></svg>