<svg xmlns="http://www.w3.org/2000/svg" width="512" height="512" viewBox="0 0 512 512"><path d="M365.194,2.5H149.775c-27.441,0-49.891,19.43-49.891,43.176V187.019c0,23.748,22.452,43.176,49.891,43.176h58.016a20.25,20.25,0,0,1,14.818,6.146L250.428,266.3a9.971,9.971,0,0,0,14.114,0l27.818-29.962a20.25,20.25,0,0,1,14.818-6.146h58.016c27.441,0,49.891-19.43,49.891-43.176V45.678c0-23.746-22.452-43.176-49.891-43.176Z" transform="translate(91.14 2.498)" fill="#a0d85d"/><path d="M181.776,121.764l-33.891-29.33c-7.22-6.248-7.22-16.378,0-22.626a20.58,20.58,0,0,1,26.147,0L194.85,87.823l50.658-43.84a20.58,20.58,0,0,1,26.147,0c7.22,6.248,7.22,16.378,0,22.626l-63.732,55.154A20.577,20.577,0,0,1,181.776,121.764Z" transform="translate(146.972 39.294)" fill="#edf4fc"/><path d="M412.266,150.734a20.25,20.25,0,0,0-14.818,6.146l-27.818,29.962a9.971,9.971,0,0,1-14.114,0L327.7,156.88a20.25,20.25,0,0,0-14.818-6.146H254.863c-27.441,0-49.891-19.43-49.891-43.176V81.963H46.3c-14.617,0-26.577,10.35-26.577,23V402.042c0,12.65,11.96,23,26.577,23H389.583c14.617,0,26.577-10.35,26.577-23V150.736h-3.894Z" transform="translate(-13.948 81.96)" fill="#bf6132"/><path d="M163.331,150.734c-27.441,0-49.891-19.43-49.891-43.176V81.963h-23.9V221.052h85.009V150.734Z" transform="translate(77.581 81.96)" fill="#facb35"/><path d="M113.44,107.557V81.963h-23.9V221.052h41.71v-80.5c-10.869-7.936-17.811-19.794-17.811-32.992Z" transform="translate(77.581 81.96)" fill="#fcac27"/><path d="M260.764,276.732a15.734,15.734,0,0,1-11.562-4.794l-27.82-29.964a14.031,14.031,0,0,0-10.314-4.278H153.051c-30.7,0-55.668-21.612-55.668-48.176V48.178C97.383,21.614,122.356,0,153.051,0H368.471c30.7,0,55.668,21.612,55.668,48.176V189.519c0,26.564-24.973,48.176-55.668,48.176H310.454a14.031,14.031,0,0,0-10.314,4.278l-27.82,29.962a15.709,15.709,0,0,1-11.555,4.8ZM153.054,10c-24.324,0-44.113,17.126-44.113,38.176V189.519c0,21.05,19.789,38.176,44.113,38.176H211.07a26.28,26.28,0,0,1,19.323,8.014l27.818,29.962a3.605,3.605,0,0,0,5.1,0l27.82-29.964a26.284,26.284,0,0,1,19.323-8.014h58.016c24.324,0,44.113-17.126,44.113-38.176V48.178C412.586,27.128,392.8,10,368.473,10Z" transform="translate(87.861 -0.002)"/><path d="M392.859,432.541H49.582c-17.841,0-32.355-12.56-32.355-28V107.462c0-15.44,14.513-28,32.355-28H208.249c3.192,0,5.778,2.238,5.778,5v25.6c0,21.05,19.789,38.176,44.113,38.176h58.016a26.28,26.28,0,0,1,19.323,8.014L363.3,186.211a3.606,3.606,0,0,0,5.105,0l27.816-29.962a26.284,26.284,0,0,1,19.323-8.014h3.892c3.192,0,5.778,2.238,5.778,5V404.541c0,15.44-14.511,28-32.35,28ZM49.582,89.462c-11.467,0-20.8,8.076-20.8,18V404.541c0,9.924,9.332,18,20.8,18H392.859c11.47,0,20.8-8.076,20.8-18V158.351a13.721,13.721,0,0,0-8.426,4.164l-27.818,29.962a16.337,16.337,0,0,1-23.122,0l-27.82-29.964a14.031,14.031,0,0,0-10.314-4.278H258.142c-30.7,0-55.668-21.612-55.668-48.176v-20.6Z" transform="translate(-17.227 79.459)"/><path d="M177.83,228.553H92.821c-3.192,0-5.778-2.238-5.778-5V84.462c0-2.762,2.586-5,5.778-5h23.9c3.192,0,5.778,2.238,5.778,5v25.6c0,21.05,19.789,38.176,44.113,38.176h11.22c3.192,0,5.778,2.238,5.778,5v70.319c0,2.762-2.584,5-5.775,5Zm-79.232-10h73.454V158.235H166.61c-30.7,0-55.668-21.612-55.668-48.176v-20.6H98.6V218.553Z" transform="translate(74.305 79.459)"/><path d="M134.53,228.553H92.821c-3.192,0-5.778-2.238-5.778-5V84.462c0-2.762,2.586-5,5.778-5h23.9c3.192,0,5.778,2.238,5.778,5v25.6c0,11.226,5.745,21.858,15.759,29.17a4.758,4.758,0,0,1,2.052,3.822v80.5c0,2.762-2.584,5-5.775,5Zm-35.932-10h30.155V145.3c-11.354-9.136-17.814-21.848-17.814-35.242V89.462H98.6Z" transform="translate(74.305 79.459)"/><path d="M180.968,127.794,147.076,98.462a19.065,19.065,0,0,1,0-29.7c9.461-8.19,24.858-8.184,34.319,0l16.732,14.482,46.572-40.3c9.464-8.19,24.86-8.184,34.319,0s9.461,21.51,0,29.7l-63.732,55.15c-9.485,8.208-24.832,8.21-34.319,0ZM164.236,72.619a13.758,13.758,0,0,0-8.99,3.216,9.99,9.99,0,0,0,0,15.556l33.891,29.33a14.142,14.142,0,0,0,17.978,0l63.732-55.154a10,10,0,0,0,0-15.556,14.17,14.17,0,0,0-17.978,0l-50.658,43.84a6.633,6.633,0,0,1-8.17,0L173.224,75.835A13.748,13.748,0,0,0,164.236,72.619Z" transform="translate(143.694 36.8)"/></svg>