<svg xmlns="http://www.w3.org/2000/svg" xmlns:xlink="http://www.w3.org/1999/xlink" width="469.336" height="469.334" viewBox="0 0 469.336 469.334"><defs><linearGradient id="a" x1="-0.133" y1="1.311" x2="-0.105" y2="1.298" gradientUnits="objectBoundingBox"><stop offset="0" stop-color="#fff" stop-opacity="0.2"/><stop offset="1" stop-color="#fff" stop-opacity="0"/></linearGradient></defs><path d="M456.836,76.168l-64-64.054c-16.125-16.139-44.177-16.17-60.365.031L45.763,301.682a10.733,10.733,0,0,0-2.688,4.587L.409,455.729a10.677,10.677,0,0,0,13.188,13.2l149.333-42.7a10.714,10.714,0,0,0,4.583-2.69L456.836,136.552a42.712,42.712,0,0,0,0-60.384Z" transform="translate(0 -0.002)" fill="#303c42"/><g transform="translate(0 -0.002)"><path d="M120.193,334l-14.712-29.434a10.671,10.671,0,0,0-9.542-5.9H78.857L285.925,89.737,325.189,129Z" fill="#ffca28"/><path d="M164.71,363.793l-29.434-14.712,205-205,39.264,39.264L170.606,390.417V373.335A10.673,10.673,0,0,0,164.71,363.793Z" fill="#ffca28"/></g><path d="M347.522,27.585c8.063-8.063,22.1-8.063,30.167,0l64,64a21.325,21.325,0,0,1,.031,30.135l-47.033,46.613L300.94,74.586Z" transform="translate(0 -0.002)" fill="#d32f2f"/><path d="M112.565,361.594a20.972,20.972,0,0,1-4.771-4.771L89.409,320.052H61.378L37.637,403.159,67.39,431.421l81.947-23.41V379.98Z" transform="translate(0 -0.002)" fill="#f2f2f2"/><path d="M67.389,431.421,37.637,403.159l2.458-8.608h0L26.2,443.188l48.636-13.895h0Z" transform="translate(0 -0.002)" fill="#666"/><path d="M149.336,379.98,112.565,361.6c-1.031-.516-1.579-1.579-2.385-2.385L26.2,443.189l123.135-35.177Z" transform="translate(0 -0.002)" opacity="0.1"/><path d="M409.753,59.636l-61.875,61.875,46.874,46.874,47.033-46.613a21.325,21.325,0,0,0-.031-30.135Z" transform="translate(0 -0.002)" opacity="0.1"/><path d="M164.774,363.844,135.34,349.132l205-205L379.6,183.4,170.67,390.468V373.386A10.673,10.673,0,0,0,164.774,363.844Z" transform="translate(0 -0.002)" opacity="0.1"/><path d="M456.836,76.168l-64-64.054c-16.125-16.139-44.177-16.17-60.365.031L45.763,301.682a10.733,10.733,0,0,0-2.688,4.587L.409,455.729a10.677,10.677,0,0,0,13.188,13.2l149.333-42.7a10.714,10.714,0,0,0,4.583-2.69L456.836,136.552a42.712,42.712,0,0,0,0-60.384Z" transform="translate(0 -0.002)" fill="url(#a)"/></svg>