<svg xmlns="http://www.w3.org/2000/svg" width="512" height="512" viewBox="0 0 512 512"><path d="M512,256c0,141.387-114.613,256-256,256S0,397.387,0,256,114.613,0,256,0,512,114.613,512,256Zm0,0" fill="#ffce00"/><path d="M512,256a258.444,258.444,0,0,0-2.156-33.324L375.1,87.934,107.641,424.067l78.2,78.2A256.177,256.177,0,0,0,256,512c141.387,0,256-114.613,256-256Zm0,0" fill="#ffa300"/><path d="M201.273,87.934l-45.16,45.16V398.016H375.1V87.934Zm0,0" fill="#87c7ff"/><path d="M269.285,87.934H375.1V398.02H269.285Zm0,0" fill="#4a98f7"/><path d="M201.273,133.094V87.934l-45.16,45.16Zm0,0" fill="#4a7aff"/><path d="M152.8,113.984l-45.16,45.16V424.066H326.629V113.984Zm0,0" fill="#fff"/><path d="M216.309,113.98h110.32V424.066H216.309Zm0,0" fill="#e9edf5"/><path d="M152.8,159.145v-45.16l-45.16,45.16Zm0,0" fill="#4a7aff"/><path d="M139.133,187.34h156v30h-156Zm0,0" fill="#d7d7d7"/><path d="M139.133,239.34h156v30h-156Zm0,0" fill="#d7d7d7"/><path d="M139.133,291.34h156v30h-156Zm0,0" fill="#d7d7d7"/><path d="M139.133,343.34h156v30h-156Zm0,0" fill="#d7d7d7"/><path d="M216.309,187.34h78.824v30H216.309Zm0,0" fill="#bebebe"/><path d="M216.309,239.34h78.824v30H216.309Zm0,0" fill="#bebebe"/><path d="M216.309,291.34h78.824v30H216.309Zm0,0" fill="#bebebe"/><path d="M216.309,343.34h78.824v30H216.309Zm0,0" fill="#bebebe"/><path d="M443.328,293.242,279.6,224.855l68.387,163.723,15.844-47.7,51.184,51.184,31.8-31.8-51.184-51.184Zm0,0" fill="#555a66"/><path d="M395.633,309.086l47.7-15.844L279.605,224.855,431.043,376.043l15.773-15.773Zm0,0" fill="#333940"/></svg>